<svg xmlns="http://www.w3.org/2000/svg" viewBox="0 0 164.09 27.23"><defs><style>.cls-1{fill:#df678c;}.cls-2{fill:#3d155f;}</style></defs><title>pplogoResurs 2</title><g id="Lager_2" data-name="Lager 2"><g id="Lager_1-2" data-name="Lager 1"><path class="cls-1" d="M0,24.1H158.66c.15-.58.24-1.15.39-1.73H0Z"/><polygon class="cls-1" points="150.51 22.37 143.98 22.37 149.15 0 155.54 0 150.51 22.37"/><polygon class="cls-1" points="159.05 22.37 152.52 22.37 157.69 0 164.09 0 159.05 22.37"/><path class="cls-2" d="M8.58,21.3a9.35,9.35,0,0,1-4.19-.87,6.35,6.35,0,0,1-2.68-2.38,6.57,6.57,0,0,1-.94-3.52,9.35,9.35,0,0,1,1-4.32A7.8,7.8,0,0,1,4.75,7,9.15,9.15,0,0,1,9.56,5.86a9.34,9.34,0,0,1,3.82.71,5.94,5.94,0,0,1,2.52,2,5,5,0,0,1,.88,3l-5.68.83a2.9,2.9,0,0,0-.19-1.75A1.38,1.38,0,0,0,9.56,10a1.81,1.81,0,0,0-1.28.51,4.38,4.38,0,0,0-.9,1.27,7.47,7.47,0,0,0-.57,1.67,8.46,8.46,0,0,0-.19,1.66,2.55,2.55,0,0,0,.24,1.16,1.52,1.52,0,0,0,.67.7,2.22,2.22,0,0,0,1,.22,1.83,1.83,0,0,0,1.28-.52,3,3,0,0,0,.8-1.38L15.89,17a6.78,6.78,0,0,1-2.75,3.15A8.58,8.58,0,0,1,8.58,21.3Z"/><path class="cls-2" d="M16.66,21,20.1,6.15h5.35l-1.1,6.09-.18-.59a13.13,13.13,0,0,1,1.23-3,5.94,5.94,0,0,1,1.9-2A5,5,0,0,1,30,5.86a4,4,0,0,1,.84.07,1.84,1.84,0,0,1,.55.19l-1.39,5a3.11,3.11,0,0,0-.71-.24,6.23,6.23,0,0,0-1.07-.08,3.82,3.82,0,0,0-1.68.38,4.12,4.12,0,0,0-1.46,1.2,5.85,5.85,0,0,0-1,2.22L22.65,21Z"/><path class="cls-2" d="M35.39,21.3a4.83,4.83,0,0,1-2.49-.66,4.51,4.51,0,0,1-1.78-1.93,6.86,6.86,0,0,1-.66-3.17A12.32,12.32,0,0,1,31,12a11.56,11.56,0,0,1,1.44-3.12,7.38,7.38,0,0,1,2.27-2.22,5.62,5.62,0,0,1,3.06-.83,4.92,4.92,0,0,1,1.71.32,4,4,0,0,1,1.48,1,3.81,3.81,0,0,1,.85,2l.71-3h6L45,21H39.58l.5-2.82a6,6,0,0,1-2,2.29A4.75,4.75,0,0,1,35.39,21.3ZM38.18,17a1.67,1.67,0,0,0,1.13-.44,3.91,3.91,0,0,0,.88-1.18,6.57,6.57,0,0,0,.56-1.56,6.82,6.82,0,0,0,.2-1.57,2.65,2.65,0,0,0-.21-1.11,1.67,1.67,0,0,0-.58-.72,1.65,1.65,0,0,0-.91-.25,1.79,1.79,0,0,0-1.24.48,3.67,3.67,0,0,0-.89,1.18,6.71,6.71,0,0,0-.54,1.52,6.56,6.56,0,0,0-.18,1.42A3.26,3.26,0,0,0,36.6,16a1.52,1.52,0,0,0,.57.77A1.75,1.75,0,0,0,38.18,17Z"/><path class="cls-2" d="M55.73,21.3a11.86,11.86,0,0,1-3.1-.42,11,11,0,0,1-2.85-1.19,7.3,7.3,0,0,1-2.15-1.9L50.39,15a6.7,6.7,0,0,0,2.11,1.78A5.1,5.1,0,0,0,55,17.5a2.35,2.35,0,0,0,1-.2.61.61,0,0,0,.38-.58.67.67,0,0,0-.23-.53,2.34,2.34,0,0,0-.75-.39L54,15.36a8.47,8.47,0,0,1-3.36-1.84,3.78,3.78,0,0,1-1-2.68,4.43,4.43,0,0,1,.85-2.7,5.16,5.16,0,0,1,2.36-1.7,9.71,9.71,0,0,1,3.51-.58,10.85,10.85,0,0,1,4.23.77,8.1,8.1,0,0,1,3,2.08L61,11.65a4.37,4.37,0,0,0-1.15-1,6.56,6.56,0,0,0-1.51-.72,5.57,5.57,0,0,0-1.68-.26,1.87,1.87,0,0,0-1,.19.61.61,0,0,0-.31.55.57.57,0,0,0,.26.49,3.38,3.38,0,0,0,.74.37l2.74.83a5.14,5.14,0,0,1,2.49,1.52,3.67,3.67,0,0,1,.86,2.46,4.79,4.79,0,0,1-.81,2.78,5.32,5.32,0,0,1-2.32,1.81A9.37,9.37,0,0,1,55.73,21.3Z"/><path class="cls-2" d="M63.45,21,68.29,0h6L72.06,9.72l-.5.83a7.29,7.29,0,0,1,1.1-2.3,5.79,5.79,0,0,1,1.91-1.73,5.58,5.58,0,0,1,2.78-.66,4.27,4.27,0,0,1,2.4.66,3.45,3.45,0,0,1,1.41,1.87,5.29,5.29,0,0,1,0,2.84L78.92,21h-6l2-8.67a1.84,1.84,0,0,0-.15-1.46,1.31,1.31,0,0,0-1.18-.53,1.9,1.9,0,0,0-1.06.3,2.24,2.24,0,0,0-.77.86,5.66,5.66,0,0,0-.52,1.42L69.45,21Z"/><path class="cls-2" d="M88.18,27.23,93.05,6.15h5.44l-1,5.56-.3-.39a7.61,7.61,0,0,1,1.17-2.91,6.24,6.24,0,0,1,2.05-1.89A5.26,5.26,0,0,1,103,5.86a4.58,4.58,0,0,1,2.41.63A4.21,4.21,0,0,1,107,8.39a7.58,7.58,0,0,1,.58,3.17,13,13,0,0,1-.47,3.49,11.57,11.57,0,0,1-1.38,3.14,7.77,7.77,0,0,1-2.15,2.26,5,5,0,0,1-2.83.85,5.75,5.75,0,0,1-2.15-.42,3.83,3.83,0,0,1-1.75-1.4,4.42,4.42,0,0,1-.7-2.64l.66-1.21-2.65,11.6ZM98.84,17a1.81,1.81,0,0,0,1.24-.47,4.11,4.11,0,0,0,.87-1.19,7.06,7.06,0,0,0,.55-1.52,6.09,6.09,0,0,0,.19-1.45,3.12,3.12,0,0,0-.19-1.17,1.56,1.56,0,0,0-.59-.76,1.76,1.76,0,0,0-1-.27,1.72,1.72,0,0,0-1.14.45,3.73,3.73,0,0,0-.89,1.17,6.28,6.28,0,0,0-.55,1.54,7.46,7.46,0,0,0-.18,1.59,2.49,2.49,0,0,0,.43,1.52A1.51,1.51,0,0,0,98.84,17Z"/><path class="cls-2" d="M113.84,21.3a4.89,4.89,0,0,1-2.5-.66,4.58,4.58,0,0,1-1.78-1.93,7,7,0,0,1-.65-3.17,12.67,12.67,0,0,1,.5-3.51,11.56,11.56,0,0,1,1.44-3.12,7.52,7.52,0,0,1,2.28-2.22,5.61,5.61,0,0,1,3.05-.83,4.84,4.84,0,0,1,1.71.32,3.91,3.91,0,0,1,1.49,1,3.89,3.89,0,0,1,.84,2l.72-3h6L123.49,21H118l.5-2.82a6,6,0,0,1-2,2.29A4.75,4.75,0,0,1,113.84,21.3ZM116.63,17a1.69,1.69,0,0,0,1.13-.44,3.89,3.89,0,0,0,.87-1.18,6.58,6.58,0,0,0,.57-1.56,6.79,6.79,0,0,0,.19-1.57,2.65,2.65,0,0,0-.21-1.11,1.67,1.67,0,0,0-.58-.72,1.59,1.59,0,0,0-.9-.25,1.81,1.81,0,0,0-1.25.48,4,4,0,0,0-.89,1.18,6.68,6.68,0,0,0-.53,1.52,6.56,6.56,0,0,0-.18,1.42A3.27,3.27,0,0,0,115,16a1.54,1.54,0,0,0,.58.77A1.72,1.72,0,0,0,116.63,17Z"/><path class="cls-2" d="M132.19,21.3a4.89,4.89,0,0,1-2.5-.66,4.58,4.58,0,0,1-1.78-1.93,7,7,0,0,1-.65-3.17,12.67,12.67,0,0,1,.5-3.51,11.56,11.56,0,0,1,1.44-3.12,7.41,7.41,0,0,1,2.28-2.22,5.61,5.61,0,0,1,3.05-.83,4.84,4.84,0,0,1,1.71.32,3.91,3.91,0,0,1,1.49,1,3.89,3.89,0,0,1,.84,2L140.68,0h6l-4.84,21h-5.47l.51-2.82a6.12,6.12,0,0,1-2,2.29A4.75,4.75,0,0,1,132.19,21.3ZM135,17a1.72,1.72,0,0,0,1.14-.44,3.61,3.61,0,0,0,.88-1.18,7,7,0,0,0,.55-1.56,6.79,6.79,0,0,0,.19-1.57,2.65,2.65,0,0,0-.21-1.11,1.67,1.67,0,0,0-.58-.72,1.59,1.59,0,0,0-.9-.25,1.81,1.81,0,0,0-1.25.48,4,4,0,0,0-.89,1.18,6.23,6.23,0,0,0-.53,1.52,6.56,6.56,0,0,0-.18,1.42,3.27,3.27,0,0,0,.19,1.19,1.54,1.54,0,0,0,.58.77A1.72,1.72,0,0,0,135,17Z"/></g></g></svg>