<svg xmlns="http://www.w3.org/2000/svg" viewBox="0 0 185.09 63"><defs><style>.cls-1{fill:#243665;}.cls-2{fill:#8bd8bd;}.cls-3{fill:#fff;}</style></defs><title>pplogo2Resurs 3</title><g id="Lager_2" data-name="Lager 2"><g id="Lager_1-2" data-name="Lager 1"><rect class="cls-1" width="185.09" height="63"/><path class="cls-2" d="M7.37,40.79H166c.15-.57.24-1.15.4-1.72H7.37Z"/><polygon class="cls-2" points="157.87 39.06 151.34 39.06 156.52 16.7 162.91 16.7 157.87 39.06"/><polygon class="cls-2" points="166.41 39.06 159.88 39.06 165.06 16.7 171.45 16.7 166.41 39.06"/><path class="cls-3" d="M16,38a9.46,9.46,0,0,1-4.19-.86,6.34,6.34,0,0,1-2.69-2.39,6.63,6.63,0,0,1-.93-3.52,9.29,9.29,0,0,1,1-4.32,7.78,7.78,0,0,1,3-3.16,9.12,9.12,0,0,1,4.81-1.19,9.49,9.49,0,0,1,3.81.71,6,6,0,0,1,2.53,2,5,5,0,0,1,.87,3l-5.67.83a3,3,0,0,0-.19-1.75,1.39,1.39,0,0,0-1.35-.65,1.82,1.82,0,0,0-1.28.5,4.4,4.4,0,0,0-.91,1.28,8.1,8.1,0,0,0-.56,1.66A7.85,7.85,0,0,0,14,31.82,2.65,2.65,0,0,0,14.22,33a1.52,1.52,0,0,0,.67.7,2.14,2.14,0,0,0,1,.22,1.8,1.8,0,0,0,1.27-.52A2.8,2.8,0,0,0,18,32l5.28,1.7a6.75,6.75,0,0,1-2.75,3.14A8.43,8.43,0,0,1,16,38Z"/><path class="cls-3" d="M24,37.7l3.45-14.85h5.34l-1.1,6.09-.18-.6a12.7,12.7,0,0,1,1.24-3,5.64,5.64,0,0,1,1.9-2,4.88,4.88,0,0,1,2.71-.73,4,4,0,0,1,.85.08,2,2,0,0,1,.55.19l-1.4,5a2.8,2.8,0,0,0-.71-.24,5.2,5.2,0,0,0-1.07-.09,3.89,3.89,0,0,0-1.68.39A4.07,4.07,0,0,0,32.47,29a5.59,5.59,0,0,0-1,2.21L30,37.7Z"/><path class="cls-3" d="M42.76,38a5,5,0,0,1-2.5-.65,4.63,4.63,0,0,1-1.78-1.93,7,7,0,0,1-.65-3.18,12.6,12.6,0,0,1,.5-3.5,11.42,11.42,0,0,1,1.44-3.12,7.56,7.56,0,0,1,2.28-2.23,5.69,5.69,0,0,1,3.05-.83,4.64,4.64,0,0,1,1.71.33,3.81,3.81,0,0,1,1.49,1,3.85,3.85,0,0,1,.84,2l.71-3h6L52.41,37.7H46.94l.51-2.83a6,6,0,0,1-2,2.29A4.75,4.75,0,0,1,42.76,38Zm2.79-4.3a1.66,1.66,0,0,0,1.13-.45,4,4,0,0,0,.87-1.17,7.07,7.07,0,0,0,.76-3.13,2.7,2.7,0,0,0-.21-1.12,1.7,1.7,0,0,0-.58-.71,1.54,1.54,0,0,0-.9-.25,1.85,1.85,0,0,0-1.25.47,4.17,4.17,0,0,0-.89,1.19A6.16,6.16,0,0,0,44,30a6.64,6.64,0,0,0-.18,1.43A3.3,3.3,0,0,0,44,32.65a1.63,1.63,0,0,0,.58.77A1.72,1.72,0,0,0,45.55,33.69Z"/><path class="cls-3" d="M63.1,38A12.36,12.36,0,0,1,60,37.58a11.66,11.66,0,0,1-2.85-1.19A7.74,7.74,0,0,1,55,34.49l2.76-2.79a7.07,7.07,0,0,0,2.11,1.78,5.19,5.19,0,0,0,2.52.71,2.3,2.3,0,0,0,1-.19.62.62,0,0,0,.39-.58.68.68,0,0,0-.24-.54,2.5,2.5,0,0,0-.74-.38l-1.48-.45A8.09,8.09,0,0,1,58,30.21a3.74,3.74,0,0,1-1-2.67,4.33,4.33,0,0,1,.85-2.7,5.19,5.19,0,0,1,2.36-1.71,9.65,9.65,0,0,1,3.5-.58,11,11,0,0,1,4.23.77,8.25,8.25,0,0,1,3,2.08l-2.59,2.94a4.71,4.71,0,0,0-1.14-1,7.2,7.2,0,0,0-1.51-.71,5.37,5.37,0,0,0-1.68-.27,1.87,1.87,0,0,0-1,.2.59.59,0,0,0-.31.54.57.57,0,0,0,.27.49,3.14,3.14,0,0,0,.74.38l2.73.83A5.21,5.21,0,0,1,69,30.3a3.72,3.72,0,0,1,.86,2.47,4.77,4.77,0,0,1-.82,2.77,5.19,5.19,0,0,1-2.32,1.81A9.17,9.17,0,0,1,63.1,38Z"/><path class="cls-3" d="M70.82,37.7l4.84-21h6l-2.22,9.68-.51.83a7.87,7.87,0,0,1,1.1-2.3,5.9,5.9,0,0,1,1.92-1.72,5.44,5.44,0,0,1,2.77-.67,4.26,4.26,0,0,1,2.41.67,3.55,3.55,0,0,1,1.41,1.87,5.3,5.3,0,0,1,0,2.84L86.29,37.7h-6l2-8.67a1.83,1.83,0,0,0-.15-1.46A1.31,1.31,0,0,0,81,27a1.84,1.84,0,0,0-1,.29,2.31,2.31,0,0,0-.77.86,5.37,5.37,0,0,0-.52,1.43L76.81,37.7Z"/><path class="cls-3" d="M95.55,43.93l4.87-21.08h5.43l-1,5.55-.29-.38a7.46,7.46,0,0,1,1.17-2.91,6,6,0,0,1,2-1.89,5.16,5.16,0,0,1,2.57-.67,4.44,4.44,0,0,1,2.4.64,4.29,4.29,0,0,1,1.62,1.9,7.53,7.53,0,0,1,.58,3.16,13.05,13.05,0,0,1-.48,3.49,10.92,10.92,0,0,1-1.38,3.15A7.77,7.77,0,0,1,111,37.15a4.93,4.93,0,0,1-2.82.84,6,6,0,0,1-2.15-.41,3.84,3.84,0,0,1-1.75-1.4,4.42,4.42,0,0,1-.7-2.64l.65-1.22-2.64,11.61Zm10.66-10.24a1.75,1.75,0,0,0,1.23-.48,3.88,3.88,0,0,0,.88-1.19,7,7,0,0,0,.55-1.51,6.16,6.16,0,0,0,.19-1.46,3.19,3.19,0,0,0-.19-1.17,1.63,1.63,0,0,0-.6-.76,1.8,1.8,0,0,0-1-.26,1.72,1.72,0,0,0-1.14.44,3.8,3.8,0,0,0-.9,1.18A6.25,6.25,0,0,0,104.7,30a7.32,7.32,0,0,0-.18,1.59,2.4,2.4,0,0,0,.43,1.51A1.48,1.48,0,0,0,106.21,33.69Z"/><path class="cls-3" d="M121.2,38a4.92,4.92,0,0,1-2.49-.65,4.57,4.57,0,0,1-1.78-1.93,6.88,6.88,0,0,1-.65-3.18,12.24,12.24,0,0,1,.5-3.5,11.42,11.42,0,0,1,1.44-3.12,7.53,7.53,0,0,1,2.27-2.23,5.7,5.7,0,0,1,3.06-.83,4.72,4.72,0,0,1,1.71.33,3.64,3.64,0,0,1,2.33,3l.71-3h6L130.85,37.7h-5.46l.51-2.83a6,6,0,0,1-2,2.29A4.81,4.81,0,0,1,121.2,38Zm2.8-4.3a1.63,1.63,0,0,0,1.12-.45,4,4,0,0,0,.88-1.17,7.45,7.45,0,0,0,.76-3.13,2.7,2.7,0,0,0-.21-1.12,1.7,1.7,0,0,0-.58-.71,1.57,1.57,0,0,0-.91-.25,1.83,1.83,0,0,0-1.24.47,3.83,3.83,0,0,0-.89,1.19,7,7,0,0,0-.72,2.94,3.29,3.29,0,0,0,.2,1.19,1.63,1.63,0,0,0,.58.77A1.7,1.7,0,0,0,124,33.69Z"/><path class="cls-3" d="M139.55,38a4.92,4.92,0,0,1-2.49-.65,4.57,4.57,0,0,1-1.78-1.93,6.87,6.87,0,0,1-.66-3.18,12.25,12.25,0,0,1,.51-3.5,11.42,11.42,0,0,1,1.44-3.12,7.53,7.53,0,0,1,2.27-2.23,5.7,5.7,0,0,1,3.06-.83,4.72,4.72,0,0,1,1.71.33,3.64,3.64,0,0,1,2.33,3l2.11-9.15h6l-4.84,21h-5.46l.51-2.83a6,6,0,0,1-2,2.29A4.81,4.81,0,0,1,139.55,38Zm2.79-4.3a1.72,1.72,0,0,0,1.15-.45,3.65,3.65,0,0,0,.87-1.17,7.4,7.4,0,0,0,.55-1.56,6.89,6.89,0,0,0,.2-1.57,2.7,2.7,0,0,0-.21-1.12,1.7,1.7,0,0,0-.58-.71,1.57,1.57,0,0,0-.91-.25,1.83,1.83,0,0,0-1.24.47,3.83,3.83,0,0,0-.89,1.19,7,7,0,0,0-.72,2.94,3.29,3.29,0,0,0,.2,1.19,1.57,1.57,0,0,0,.58.77A1.69,1.69,0,0,0,142.34,33.69Z"/><polygon class="cls-2" points="171.04 43.27 177.6 43.27 171.45 16.7 165.06 16.7 171.04 43.27"/><path class="cls-2" d="M151.29,44.93h26c0-.55.33-1.11.36-1.66H151.29Z"/></g></g></svg>